<?xml version="1.0" standalone="yes"?>
<svg xmlns="http://www.w3.org/2000/svg" width="512" height="512">
<path style="fill:#010101; stroke:none;" d="M0 0L0 512L251 512C233 486.347 211.206 462.508 191.6 438C185.261 430.075 176.655 413.735 166.985 410.032C157.055 406.229 144.477 406.093 134 404.41C111.655 400.821 89.3634 396.893 67 393.424C57.7113 391.984 37.2428 392.672 33.4336 382.075C30.3647 373.537 39.3985 359.89 42.3187 352C50.7577 329.199 60.0289 306.672 68.811 284C71.7951 276.296 79.4886 264.393 78.135 256C76.5103 245.925 70.6178 235.538 67.0502 226C58.9328 204.298 50.6006 182.679 42.4236 161C39.199 152.451 28.0534 134.561 35.5694 126.34C42.37 118.9 62.4401 119.314 72 118C93.0416 115.109 113.99 111.531 135 108.421C144.192 107.061 156.392 107.215 164.91 103.436C174.852 99.0253 184.448 81.4265 191.2 73C210.715 48.6437 233.07 25.478 251 0L0 0z"/>
<path style="fill:#030389; stroke:none;" d="M251 1.02777C242.434 5.31723 235.479 17.6545 229.6 25C214.826 43.4603 199.807 61.7695 184.75 80C179.095 86.8473 172.693 98.5974 164.91 102.987C157.173 107.351 143.735 107.012 135 108.271C112.648 111.492 90.3155 114.963 68 118.424C59.4247 119.754 39.3436 119.176 34.2824 127.189C28.5404 136.28 39.461 154.199 42.8079 163L67.4244 228C70.7399 236.716 77.3261 247.644 77.8603 257C78.3457 265.5 71.3961 276.188 68.4244 284C59.7769 306.733 50.4702 329.22 41.9498 352C38.8178 360.374 32.0659 370.823 32.7685 379.999C33.3383 387.441 39.7732 389.197 46 390.247C59.9873 392.605 74.005 394.762 88 397.08C106.317 400.114 124.679 402.908 143 405.92C150.467 407.147 161.393 407.03 167.961 410.938C174.896 415.066 180.212 424.766 185.2 431L219.6 474C228.114 484.642 236.247 495.799 245.289 505.995C249.272 510.487 254.919 514.017 261 510.972C269.566 506.683 276.521 494.345 282.4 487C297.174 468.54 312.193 450.231 327.25 432C332.905 425.153 339.307 413.403 347.09 409.013C354.613 404.77 367.514 405.312 376 403.92C398.621 400.208 421.347 397.089 444 393.576C452.365 392.278 472.923 392.813 477.682 384.811C483.295 375.372 472.592 357.941 469.192 349C460.957 327.345 452.753 305.677 444.576 284C441.288 275.281 434.673 264.339 434.14 255C433.654 246.5 440.604 235.812 443.576 228C452.223 205.268 461.53 182.78 470.05 160C473.182 151.626 479.934 141.177 479.231 132.001C478.662 124.559 472.227 122.803 466 121.753C452.011 119.395 437.995 117.238 424 114.92L369 105.92C361.469 104.681 350.691 105.02 344.039 101.062C337.103 96.9338 331.788 87.2344 326.8 81L292.4 38C283.886 27.3579 275.753 16.2013 266.711 6.00464C262.728 1.51349 257.081 -2.0174 251 1.02777z"/>
<path style="fill:#010101; stroke:none;" d="M261 0C279 25.653 300.794 49.4917 320.4 74C326.739 81.9248 335.345 98.2655 345.015 101.968C354.637 105.653 366.847 105.711 377 107.414C399.642 111.211 422.314 114.906 445 118.424C454.234 119.856 474.811 119.479 478.566 129.925C481.635 138.463 472.602 152.11 469.681 160C461.242 182.802 451.971 205.327 443.189 228C440.205 235.704 432.511 247.607 433.865 256C435.486 266.053 441.397 276.47 444.95 286C453.043 307.71 461.399 329.321 469.576 351C472.795 359.534 483.852 377.331 476.427 385.657C469.779 393.113 449.453 392.698 440 394C418.314 396.987 396.602 400.375 375 403.92C366.405 405.33 355.059 405.029 347.09 408.564C337.148 412.974 327.552 430.574 320.8 439C301.285 463.356 278.93 486.522 261 512L512 512L512 0L261 0M255 27C239.35 50.6598 218.643 71.9293 200.803 94C193.945 102.484 185.695 117.403 175.961 122.544C166.228 127.684 150.802 126.989 140 128.754C113.237 133.127 85.0809 139.837 58 141L68.5764 171L89.4236 226L100.606 258L90.4244 286L69.3997 340L58 371C87.2621 373.312 117.022 380.29 146 385.08C155.68 386.68 173.079 386.302 180.91 392.434C188.519 398.391 194.379 408.474 200.4 416L238 463C243.867 470.334 249.408 479.411 257 485C272.65 461.34 293.357 440.071 311.197 418C318.055 409.516 326.305 394.597 336.039 389.456C345.772 384.316 361.198 385.011 372 383.246C398.732 378.878 426.959 372.161 454 371L443.424 341L423 287L411.395 254L421.576 226L442.6 172L454 141C425.08 138.699 395.653 131.791 367 127.08C356.877 125.416 339.417 125.767 331.09 119.486C324.368 114.417 319.238 105.547 314 99L275.6 51C269.252 43.0641 263.212 33.0447 255 27z"/>
<path style="fill:#fff79b; stroke:none;" d="M255 105L217.919 150L201.961 168.012L181 172.08L125 181L144.601 234L152.943 258L144.4 282L125 332L182 341.414L205.829 345.988L221.2 364L256 407L257 407L294.081 362L310.039 343.988L333 339.728L387 331L367.399 278L359.057 254L367.6 230L387 180C368.082 175.444 348.197 173.633 329 170.414C322.268 169.285 312.058 169.569 306.171 166.012C300.62 162.658 296.403 155.004 292.4 150C281.024 135.78 269.665 115.795 255 105z"/>
<path style="fill:#a9a395; stroke:none;" d="M251 191L252 192L251 191z"/>
<path style="fill:#615d90; stroke:none;" d="M252 191L253 192L252 191z"/>
<path style="fill:#030389; stroke:none;" d="M253 191.613C242.211 194.162 238.471 209.382 229.714 215.062C221.286 220.527 201.877 214.558 198.587 227.004C195.742 237.766 208.053 248.268 207.487 259C206.993 268.375 194.543 280.609 201.009 289.786C207.092 298.419 223.366 294.379 231.996 298.434C241.257 302.785 246.761 323.279 259 320.387C269.789 317.838 273.529 302.618 282.286 296.938C290.714 291.473 310.123 297.442 313.413 284.996C316.274 274.173 303.729 263.773 304.563 253C305.279 243.75 317.338 231.222 310.991 222.214C305.033 213.759 288.615 217.299 280.004 213.486C270.569 209.308 265.346 188.696 253 191.613z"/>
<path style="fill:#615d90; stroke:none;" d="M257 191L258 192L257 191z"/>
<path style="fill:#a9a395; stroke:none;" d="M258 191L259 192L258 191M249 192L250 193L249 192M260 192L261 193L260 192z"/>
<path style="fill:#615d90; stroke:none;" d="M248 193L249 194L248 193M261 193L262 194L261 193M247 194L248 195L247 194M262 194L263 195L262 194z"/>
<path style="fill:#a9a395; stroke:none;" d="M246 195L247 196L246 195z"/>
<path style="fill:#615d90; stroke:none;" d="M263 195L264 196L263 195z"/>
<path style="fill:#a9a395; stroke:none;" d="M245 196L246 197L245 196M264 196L265 197L264 196M265 197L266 198L265 197z"/>
<path style="fill:#615d90; stroke:none;" d="M243 199L244 200L243 199M266 199L267 200L266 199M242 200L243 201L242 200M267 200L268 201L267 200z"/>
<path style="fill:#a9a395; stroke:none;" d="M241 201L242 202L241 201M268 201L269 202L268 201M269 202L270 203L269 202z"/>
<path style="fill:#615d90; stroke:none;" d="M239 204L240 205L239 204M270 204L271 205L270 204M238 205L239 206L238 205M271 205L272 206L271 205z"/>
<path style="fill:#a9a395; stroke:none;" d="M237 206L238 207L237 206M272 206L273 207L272 206M236 207L237 208L236 207M273 207L274 208L273 207z"/>
<path style="fill:#615d90; stroke:none;" d="M235 209L236 210L235 209M274 209L275 210L274 209M234 210L235 211L234 210M275 210L276 211L275 210z"/>
<path style="fill:#a9a395; stroke:none;" d="M233 211L234 212L233 211M276 211L277 212L276 211M232 212L233 213L232 212M277 212L278 213L277 212z"/>
<path style="fill:#615d90; stroke:none;" d="M278 213L279 214L278 213z"/>
<path style="fill:#a9a395; stroke:none;" d="M279.667 213.333L280.333 213.667L279.667 213.333z"/>
<path style="fill:#615d90; stroke:none;" d="M283.667 214.333L284.333 214.667L283.667 214.333z"/>
<path style="fill:#a9a395; stroke:none;" d="M285.667 214.333L286.333 214.667L285.667 214.333z"/>
<path style="fill:#615d90; stroke:none;" d="M230 215L231 216L230 215M289.667 215.333L290.333 215.667L289.667 215.333z"/>
<path style="fill:#a9a395; stroke:none;" d="M291.667 215.333L292.333 215.667L291.667 215.333M223.667 216.333L224.333 216.667L223.667 216.333z"/>
<path style="fill:#615d90; stroke:none;" d="M225.667 216.333L226.333 216.667L225.667 216.333M295.667 216.333L296.333 216.667L295.667 216.333z"/>
<path style="fill:#a9a395; stroke:none;" d="M297.667 216.333L298.333 216.667L297.667 216.333M217.667 217.333L218.333 217.667L217.667 217.333z"/>
<path style="fill:#615d90; stroke:none;" d="M219.667 217.333L220.333 217.667L219.667 217.333M301.667 217.333L302.333 217.667L301.667 217.333z"/>
<path style="fill:#a9a395; stroke:none;" d="M303.667 217.333L304.333 217.667L303.667 217.333M210.667 218.333L211.333 218.667L210.667 218.333z"/>
<path style="fill:#615d90; stroke:none;" d="M212.667 218.333L213.333 218.667L212.667 218.333z"/>
<path style="fill:#010101; stroke:none;" d="M254 218L238.996 234.427L224.132 238.603L228.667 256L224 276L244.961 281.008L258 294L273.004 277.573L287.868 273.4L283.333 256L288 236L267.039 230.992L254 218z"/>
<path style="fill:#615d90; stroke:none;" d="M306 218L307 219L306 218z"/>
<path style="fill:#a9a395; stroke:none;" d="M307 218L308 219L307 218M205 219L206 220L205 219z"/>
<path style="fill:#615d90; stroke:none;" d="M206.667 219.333L207.333 219.667L206.667 219.333M308 219L309 220L308 219M203 220L204 221L203 220z"/>
<path style="fill:#a9a395; stroke:none;" d="M310 220L311 221L310 220M201 221L202 222L201 221M200 222L201 223L200 222z"/>
<path style="fill:#615d90; stroke:none;" d="M311 222L312 223L311 222z"/>
<path style="fill:#a9a395; stroke:none;" d="M199 223L200 224L199 223M312 223L313 224L312 223z"/>
<path style="fill:#615d90; stroke:none;" d="M312 224L313 225L312 224z"/>
<path style="fill:#a9a395; stroke:none;" d="M198 225L199 226L198 225z"/>
<path style="fill:#615d90; stroke:none;" d="M198 226L199 227L198 226z"/>
<path style="fill:#a9a395; stroke:none;" d="M313 227L314 228L313 227z"/>
<path style="fill:#615d90; stroke:none;" d="M312 230L313 231L312 230z"/>
<path style="fill:#a9a395; stroke:none;" d="M312 231L313 232L312 231z"/>
<path style="fill:#615d90; stroke:none;" d="M198 232L199 233L198 232z"/>
<path style="fill:#a9a395; stroke:none;" d="M198 233L199 234L198 233z"/>
<path style="fill:#615d90; stroke:none;" d="M311 233L312 234L311 233z"/>
<path style="fill:#a9a395; stroke:none;" d="M311 234L312 235L311 234z"/>
<path style="fill:#615d90; stroke:none;" d="M199 235L200 236L199 235M310 236L311 237L310 236M200 237L201 238L200 237z"/>
<path style="fill:#a9a395; stroke:none;" d="M200 238L201 239L200 238z"/>
<path style="fill:#615d90; stroke:none;" d="M309 238L310 239L309 238z"/>
<path style="fill:#a9a395; stroke:none;" d="M309 239L310 240L309 239z"/>
<path style="fill:#615d90; stroke:none;" d="M201 240L202 241L201 240z"/>
<path style="fill:#a9a395; stroke:none;" d="M201 241L202 242L201 241z"/>
<path style="fill:#615d90; stroke:none;" d="M308 241L309 242L308 241z"/>
<path style="fill:#a9a395; stroke:none;" d="M202 243L203 244L202 243z"/>
<path style="fill:#615d90; stroke:none;" d="M307 243L308 244L307 243z"/>
<path style="fill:#a9a395; stroke:none;" d="M307 244L308 245L307 244z"/>
<path style="fill:#615d90; stroke:none;" d="M203 245L204 246L203 245z"/>
<path style="fill:#a9a395; stroke:none;" d="M203 246L204 247L203 246z"/>
<path style="fill:#615d90; stroke:none;" d="M306 246L307 247L306 246z"/>
<path style="fill:#a9a395; stroke:none;" d="M306 247L307 248L306 247z"/>
<path style="fill:#615d90; stroke:none;" d="M204 248L205 249L204 248z"/>
<path style="fill:#a9a395; stroke:none;" d="M204 249L205 250L204 249M305 249L306 250L305 249z"/>
<path style="fill:#615d90; stroke:none;" d="M205 250L206 251L205 250z"/>
<path style="fill:#a9a395; stroke:none;" d="M205 251L206 252L205 251z"/>
<path style="fill:#615d90; stroke:none;" d="M304 251L305 252L304 251z"/>
<path style="fill:#a9a395; stroke:none;" d="M304 252L305 253L304 252z"/>
<path style="fill:#615d90; stroke:none;" d="M206 253L207 254L206 253z"/>
<path style="fill:#a9a395; stroke:none;" d="M206 254L207 255L206 254z"/>
<path style="fill:#615d90; stroke:none;" d="M304 255L305 256L304 255M207 256L208 257L207 256z"/>
<path style="fill:#a9a395; stroke:none;" d="M305 257L306 258L305 257z"/>
<path style="fill:#615d90; stroke:none;" d="M305 258L306 259L305 258z"/>
<path style="fill:#a9a395; stroke:none;" d="M207 259L208 260L207 259z"/>
<path style="fill:#615d90; stroke:none;" d="M207 260L208 261L207 260z"/>
<path style="fill:#a9a395; stroke:none;" d="M306 260L307 261L306 260z"/>
<path style="fill:#615d90; stroke:none;" d="M306 261L307 262L306 261z"/>
<path style="fill:#a9a395; stroke:none;" d="M206 262L207 263L206 262M307 262L308 263L307 262z"/>
<path style="fill:#615d90; stroke:none;" d="M206 263L207 264L206 263M307 263L308 264L307 263z"/>
<path style="fill:#a9a395; stroke:none;" d="M205 264L206 265L205 264z"/>
<path style="fill:#615d90; stroke:none;" d="M205 265L206 266L205 265z"/>
<path style="fill:#a9a395; stroke:none;" d="M308 265L309 266L308 265z"/>
<path style="fill:#615d90; stroke:none;" d="M308 266L309 267L308 266z"/>
<path style="fill:#a9a395; stroke:none;" d="M204 267L205 268L204 267z"/>
<path style="fill:#615d90; stroke:none;" d="M204 268L205 269L204 268z"/>
<path style="fill:#a9a395; stroke:none;" d="M309 268L310 269L309 268z"/>
<path style="fill:#615d90; stroke:none;" d="M203 270L204 271L203 270z"/>
<path style="fill:#a9a395; stroke:none;" d="M310 270L311 271L310 270z"/>
<path style="fill:#615d90; stroke:none;" d="M310 271L311 272L310 271z"/>
<path style="fill:#a9a395; stroke:none;" d="M202 272L203 273L202 272z"/>
<path style="fill:#615d90; stroke:none;" d="M202 273L203 274L202 273z"/>
<path style="fill:#a9a395; stroke:none;" d="M311 273L312 274L311 273z"/>
<path style="fill:#615d90; stroke:none;" d="M311 274L312 275L311 274M201 275L202 276L201 275M312 276L313 277L312 276z"/>
<path style="fill:#a9a395; stroke:none;" d="M200 277L201 278L200 277z"/>
<path style="fill:#615d90; stroke:none;" d="M200 278L201 279L200 278z"/>
<path style="fill:#a9a395; stroke:none;" d="M313 278L314 279L313 278z"/>
<path style="fill:#615d90; stroke:none;" d="M313 279L314 280L313 279z"/>
<path style="fill:#a9a395; stroke:none;" d="M199 280L200 281L199 280z"/>
<path style="fill:#615d90; stroke:none;" d="M199 281L200 282L199 281z"/>
<path style="fill:#a9a395; stroke:none;" d="M198 284L199 285L198 284z"/>
<path style="fill:#615d90; stroke:none;" d="M313 285L314 286L313 285z"/>
<path style="fill:#a9a395; stroke:none;" d="M313 286L314 287L313 286z"/>
<path style="fill:#615d90; stroke:none;" d="M199 287L200 288L199 287z"/>
<path style="fill:#a9a395; stroke:none;" d="M199 288L200 289L199 288M312 288L313 289L312 288z"/>
<path style="fill:#615d90; stroke:none;" d="M200 289L201 290L200 289z"/>
<path style="fill:#a9a395; stroke:none;" d="M311 289L312 290L311 289M310 290L311 291L310 290M201 291L202 292L201 291z"/>
<path style="fill:#615d90; stroke:none;" d="M308 291L309 292L308 291M203 292L204 293L203 292M304.667 292.333L305.333 292.667L304.667 292.333z"/>
<path style="fill:#a9a395; stroke:none;" d="M306 292L307 293L306 292M204 293L205 294L204 293z"/>
<path style="fill:#615d90; stroke:none;" d="M205 293L206 294L205 293M298.667 293.333L299.333 293.667L298.667 293.333z"/>
<path style="fill:#a9a395; stroke:none;" d="M300.667 293.333L301.333 293.667L300.667 293.333M207.667 294.333L208.333 294.667L207.667 294.333z"/>
<path style="fill:#615d90; stroke:none;" d="M209.667 294.333L210.333 294.667L209.667 294.333M291.667 294.333L292.333 294.667L291.667 294.333z"/>
<path style="fill:#a9a395; stroke:none;" d="M293.667 294.333L294.333 294.667L293.667 294.333M213.667 295.333L214.333 295.667L213.667 295.333z"/>
<path style="fill:#615d90; stroke:none;" d="M215.667 295.333L216.333 295.667L215.667 295.333M285.667 295.333L286.333 295.667L285.667 295.333z"/>
<path style="fill:#a9a395; stroke:none;" d="M287.667 295.333L288.333 295.667L287.667 295.333M219.667 296.333L220.333 296.667L219.667 296.333z"/>
<path style="fill:#615d90; stroke:none;" d="M221.667 296.333L222.333 296.667L221.667 296.333M281 296L282 297L281 296z"/>
<path style="fill:#a9a395; stroke:none;" d="M226 297L227 298L226 297z"/>
<path style="fill:#615d90; stroke:none;" d="M227 297L227 298L230 298L227 297z"/>
<path style="fill:#a9a395; stroke:none;" d="M231.667 298.333L232.333 298.667L231.667 298.333z"/>
<path style="fill:#615d90; stroke:none;" d="M233 298L234 299L233 298z"/>
<path style="fill:#a9a395; stroke:none;" d="M279 299L280 300L279 299M235 300L236 301L235 300M278 300L279 301L278 300z"/>
<path style="fill:#615d90; stroke:none;" d="M236 301L237 302L236 301M277 301L278 302L277 301M237 302L238 303L237 302M276 302L277 303L276 302z"/>
<path style="fill:#a9a395; stroke:none;" d="M275 304L276 305L275 304M239 305L240 306L239 305M274 305L275 306L274 305z"/>
<path style="fill:#615d90; stroke:none;" d="M240 306L241 307L240 306M273 306L274 307L273 306M241 307L242 308L241 307M272 307L273 308L272 307z"/>
<path style="fill:#a9a395; stroke:none;" d="M271 309L272 310L271 309M243 310L244 311L243 310M270 310L271 311L270 310z"/>
<path style="fill:#615d90; stroke:none;" d="M244 311L245 312L244 311M269 311L270 312L269 311M245 312L246 313L245 312M268 312L269 313L268 312z"/>
<path style="fill:#a9a395; stroke:none;" d="M247 315L248 316L247 315M266 315L267 316L266 315z"/>
<path style="fill:#615d90; stroke:none;" d="M248 316L249 317L248 316z"/>
<path style="fill:#a9a395; stroke:none;" d="M265 316L266 317L265 316z"/>
<path style="fill:#615d90; stroke:none;" d="M249 317L250 318L249 317M264 317L265 318L264 317M250 318L251 319L250 318M263 318L264 319L263 318z"/>
<path style="fill:#a9a395; stroke:none;" d="M251 319L252 320L251 319M262 319L263 320L262 319M253 320L254 321L253 320z"/>
<path style="fill:#615d90; stroke:none;" d="M254 320L255 321L254 320M259 320L260 321L259 320z"/>
<path style="fill:#a9a395; stroke:none;" d="M260 320L261 321L260 320z"/>
</svg>
